<svg height="511pt" viewBox="-11 0 511 511.99315" width="511pt" xmlns="http://www.w3.org/2000/svg"><path d="m490.097656 280.738281h-.003906c.105469-1.90625.191406-3.816406.25-5.730469h-489.703125c.0625 1.914063.144531 3.824219.25 5.730469h-.003906c.28125 5.050781.820312 11.246094 1.488281 16.671875h.003906c10.011719 80.828125 59.382813 149.441406 128.351563 186.078125 7.058593-4.457031 13.546875-9.894531 19.238281-16.226562l12.101562-13.464844c17.382813-19.34375 42.167969-30.390625 68.175782-30.390625h48.570312c24.3125 0 47.628906-9.65625 64.816406-26.847656 17.191407-17.1875 40.503907-26.847656 64.816407-26.847656h59.515625c10.390625-22.46875 17.472656-46.777344 20.632812-72.300782h.011719c.6875-5.546875 1.257813-12.535156 1.488281-16.671875zm0 0" fill="#4ecaff"/><path d="m1.761719 242.226562h487.488281c-12.417969-123.675781-116.808594-220.226562-243.757812-220.226562-100.558594 0-186.949219 60.59375-224.699219 147.25l-14.296875 43.679688c-2.15625 9.5625-3.730469 19.347656-4.734375 29.296874zm0 0" fill="#d5373a"/><path d="m350.007812 280.738281h140.089844c.25-4.550781.390625-9.128906.390625-13.742187 0-8.796875-.472656-17.480469-1.378906-26.035156-33.226563-26.171876-75.421875-62.871094-107.828125-102.734376-15.785156-19.417968-46.765625-19.417968-62.546875 0-62.742187 77.1875-162.191406 142.511719-162.191406 142.511719zm0 0" fill="#fdebba"/><path d="m355.367188 192.039062c-27.773438-40.851562 13.84375-63.246093 14.246093-63.460937-16.453125-8.902344-38.40625-5.695313-50.878906 9.648437-62.742187 77.1875-162.191406 142.511719-162.191406 142.511719h181.476562c29.175781-21.035156 41.402344-53.320312 17.347657-88.699219zm0 0" fill="#fcd592"/><path d="m318.734375 138.226562c-62.742187 77.1875-162.191406 142.511719-162.191406 142.511719h96.753906c38.601563-14.894531 74.980469-39.953125 64.773437-76.078125-17.9375-63.5 41.636719-79.847656 41.636719-79.847656-14.574219-3.46875-30.878906.996094-40.972656 13.414062zm0 0" fill="#fbbf6a"/><path d="m240.53125 94.925781c-20.578125-25.316406-60.96875-25.316406-81.546875 0-47.871094 58.894531-112.125 112.480469-157.199219 146.8125-.851562 8.304688-1.289062 16.730469-1.289062 25.257813 0 4.613281.140625 9.191406.390625 13.742187h158.957031c15.984375-10.835937 86.921875-60.289062 141.757812-120.449219-21.4375-20.445312-42.488281-42.503906-61.070312-65.363281zm0 0" fill="#fbbf6a"/><path d="m269.652344 128.144531c1.554687 14.921875.285156 62.40625-77.511719 68.015625-66.925781 4.824219-98.421875 46.097656-94.671875 84.578125h62.375c15.984375-10.839843 86.921875-60.289062 141.757812-120.449219-10.839843-10.335937-21.578124-21.085937-31.949218-32.144531zm0 0" fill="#f4ae5b"/><path d="m225.222656 82.292969c-21.441406-11.542969-50.003906-7.339844-66.238281 12.632812-47.871094 58.894531-112.125 112.480469-157.199219 146.8125-.851562 8.304688-1.289062 16.730469-1.289062 25.257813 0 4.613281.140625 9.191406.390625 13.742187h158.957031c5.933594-4.023437 19.4375-13.367187 36.875-26.597656 13.054688-24.714844 13.0625-55.335937-3.941406-88.460937-31.644532-61.648438 31.890625-83.199219 32.445312-83.386719zm0 0" fill="#fcd592"/><path d="m196.71875 254.140625c9.105469-17.238281 11.851562-37.355469 6.917969-59.1875-3.636719.507813-7.457031.917969-11.496094 1.207031-66.925781 4.824219-98.421875 46.097656-94.671875 84.578125h62.375c5.929688-4.023437 19.4375-13.367187 36.875-26.597656zm0 0" fill="#fbbf6a"/><path d="m130.730469 483.488281c7.058593-4.457031 13.546875-9.894531 19.238281-16.226562l12.101562-13.464844c14.257813-15.867187 33.496094-26.144531 54.304688-29.332031-19.207031-42.351563 90.878906-47.308594 20.636719-84.722656-76.300781-40.644532 26.066406-59.003907 26.066406-59.003907h-262.191406c4.867187 88.007813 56.183593 163.621094 129.84375 202.75zm0 0" fill="#29a7ed"/><path d="m358.945312 22.8125c-12.601562-21.824219-40.507812-29.300781-62.328124-16.699219-21.824219 12.601563-29.300782 40.507813-16.703126 62.328125 12.601563 21.824219 40.507813 29.300782 62.332032 16.703125 21.820312-12.601562 29.300781-40.507812 16.699218-62.332031zm0 0" fill="#feb71c"/><path d="m313.410156 49.113281c-9.144531-15.839843-7.707031-34.875 2.105469-48.945312-6.460937.554687-12.90625 2.488281-18.890625 5.945312-21.824219 12.601563-29.300781 40.507813-16.703125 62.332031 12.601563 21.824219 40.507813 29.300782 62.332031 16.699219 5.984375-3.453125 10.882813-8.066406 14.59375-13.386719-17.089844 1.464844-34.296875-6.808593-43.4375-22.644531zm0 0" fill="#fc9917"/><path d="m130.152344 211.5c-2.382813 6.148438 3.3125 12.039062 9.207031 10.546875 53.722656-13.574219 111.722656-75.660156 128.734375-94.972656 2.003906-2.273438.332031-5.816407-2.695312-5.765625-93.050782 1.566406-126.554688 67.761718-135.246094 90.191406zm0 0" fill="#63d12a"/><path d="m164.816406 159.832031c-20.207031 19.234375-30.410156 40.691407-34.664062 51.664063-2.382813 6.148437 3.3125 12.042968 9.207031 10.550781 17.660156-4.464844 35.785156-14.167969 52.761719-25.871094-19.394532.785157-33.417969-18.085937-27.304688-36.34375zm0 0" fill="#51bd1d"/><path d="m354.875 329.117188h-95.242188c-4.273437 0-7.734374-3.460938-7.734374-7.730469 0-4.273438 3.460937-7.734375 7.734374-7.734375h95.242188c4.269531 0 7.734375 3.460937 7.734375 7.734375 0 4.269531-3.464844 7.730469-7.734375 7.730469zm0 0" fill="#8dd9ff"/><path d="m333.203125 362.777344h-30.261719c-4.273437 0-7.734375-3.460938-7.734375-7.734375 0-4.269531 3.460938-7.730469 7.734375-7.730469h30.261719c4.273437 0 7.734375 3.460938 7.734375 7.730469 0 4.273437-3.460938 7.734375-7.734375 7.734375zm0 0" fill="#8dd9ff"/><path d="m394.75 329.117188h-9.960938c-4.273437 0-7.734374-3.460938-7.734374-7.730469 0-4.273438 3.460937-7.734375 7.734374-7.734375h9.960938c4.269531 0 7.730469 3.460937 7.730469 7.734375 0 4.269531-3.460938 7.730469-7.730469 7.730469zm0 0" fill="#8dd9ff"/><path d="m116.449219 370.449219h-9.960938c-4.273437 0-7.734375-3.464844-7.734375-7.734375 0-4.269532 3.460938-7.734375 7.734375-7.734375h9.960938c4.269531 0 7.734375 3.464843 7.734375 7.734375 0 4.269531-3.464844 7.734375-7.734375 7.734375zm0 0" fill="#4ecaff"/><path d="m135.339844 214.828125c-7.078125 1.164063-9.449219 9.761719-4.792969 14.464844 42.4375 42.839843 132.703125 62.855469 160.214844 68.117187 3.242187.621094 5.636719-2.90625 3.914062-5.71875-52.9375-86.339844-133.507812-81.121094-159.335937-76.863281zm0 0" fill="#51bd1d"/><path d="m178.457031 246.855469c0-14.832031 11.707031-26.933594 26.386719-27.570313-29.988281-8.957031-56.589844-6.585937-69.503906-4.457031-7.078125 1.167969-9.449219 9.761719-4.792969 14.464844 14.25 14.386719 33.898437 26.191406 54.746094 35.738281-4.253907-4.855469-6.835938-11.210938-6.835938-18.175781zm0 0" fill="#3eaa05"/><path d="m138.527344 217.945312c-.371094 7.167969-8.652344 10.480469-13.839844 6.375-47.300781-37.402343-77.242188-124.878906-85.535156-151.632812-.976563-3.152344 2.257812-5.925781 5.246094-4.527344 91.695312 42.996094 95.484374 123.644532 94.128906 149.785156zm0 0" fill="#51bd1d"/><path d="m124.519531 145.246094c3.15625 23.824218-23.246093 39.574218-42.640625 26.640625 12.058594 20.421875 26.382813 39.445312 42.808594 52.433593 5.1875 4.105469 13.46875.792969 13.839844-6.375.710937-13.691406 0-42.339843-14.007813-72.699218zm0 0" fill="#3eaa05"/><path d="m141.289062 226.429688c-5.691406-4.371094-13.585937-.230469-13.839843 6.382812-2.296875 60.257812 44.746093 139.851562 59.699219 163.539062 1.757812 2.789063 5.96875 2.128907 6.847656-1.046874 26.890625-97.640626-31.957032-152.921876-52.707032-168.875zm0 0" fill="#3eaa05"/><path d="m186.199219 281.664062c-13.96875-28.839843-34.359375-47.121093-44.910157-55.234374-5.691406-4.371094-13.589843-.230469-13.839843 6.382812-.796875 20.941406 4.367187 44.21875 12.070312 66.675781 1.703125-23.425781 29.988281-33.941406 46.679688-17.824219zm0 0" fill="#3a9306"/><path d="m20.792969 169.25c-6.070313 13.933594-10.886719 28.539062-14.296875 43.679688 34.847656 12.167968 77.734375 22.71875 112.3125 17.503906 6.542968-.988282 9.777344-9.296875 4.796875-14.464844-13.09375-13.585938-48.714844-44.574219-102.8125-46.71875zm0 0" fill="#3eaa05"/><path d="m123.605469 215.96875c-9.234375-9.578125-29.671875-27.792969-59.878907-38.464844 6.425782 5.050782 10.558594 12.890625 10.558594 21.699219 0 13.21875-9.292968 24.257813-21.699218 26.960937 22.730468 4.949219 45.910156 7.332032 66.222656 4.265626 6.542968-.984376 9.777344-9.292969 4.796875-14.460938zm0 0" fill="#3a9306"/><path d="m125.078125 216.199219c-16.667969 18.738281-63.128906 74.988281-100.023437 157.816406 5.832031 11.992187 12.613281 23.4375 20.25 34.238281 16.039062-54.894531 44.011718-122.855468 92.292968-181.335937 2.570313-3.109375 2.5-7.625-.15625-10.664063-3.269531-3.734375-9.0625-3.765625-12.363281-.054687zm0 0" fill="#c65330"/><path d="m59.476562 347.554688c-7.890624 0-14.28125-6.394532-14.28125-14.28125 0-.152344.015626-.300782.023438-.453126-6.875 12.875-13.667969 26.613282-20.164062 41.195313 5.832031 11.992187 12.613281 23.4375 20.25 34.238281 5.769531-19.753906 13.097656-41.199218 22.351562-63.285156-2.320312 1.625-5.136719 2.585938-8.179688 2.585938zm0 0" fill="#b24223"/><g fill="#d66138"><path d="m104.902344 271.6875-15.089844-10.808594c-3.472656-2.488281-4.269531-7.320312-1.785156-10.792968 2.488281-3.472657 7.324218-4.269532 10.792968-1.78125l15.089844 10.808593c3.472656 2.488281 4.269532 7.320313 1.785156 10.792969-2.480468 3.460938-7.3125 4.277344-10.792968 1.78125zm0 0"/><path d="m86.695312 301.636719-16.566406-12.765625c-3.382812-2.609375-4.011718-7.464844-1.40625-10.847656 2.605469-3.382813 7.460938-4.015626 10.847656-1.40625l16.566407 12.765624c3.382812 2.609376 4.011719 7.464844 1.40625 10.847657-2.597657 3.371093-7.453125 4.019531-10.847657 1.40625zm0 0"/><path d="m69.054688 338.492188-20.34375-13.242188c-3.582032-2.332031-4.59375-7.121094-2.265626-10.703125 2.328126-3.578125 7.121094-4.589844 10.703126-2.261719l20.34375 13.242188c3.582031 2.328125 4.59375 7.121094 2.265624 10.699218-2.34375 3.597657-7.136718 4.582032-10.703124 2.265626zm0 0"/><path d="m51.332031 386.296875-25.941406-11.980469c-3.875-1.789062-5.570313-6.382812-3.78125-10.261718 1.792969-3.878907 6.386719-5.570313 10.265625-3.777344l25.941406 11.976562c3.875 1.789063 5.570313 6.382813 3.777344 10.261719-1.785156 3.875-6.378906 5.574219-10.261719 3.78125zm0 0"/></g><path d="m468.921875 367.648438h-60.472656c-24.308594 0-47.625 9.660156-64.816407 26.847656-17.1875 17.191406-40.503906 26.847656-64.8125 26.847656h-48.574218c-26.007813 0-50.789063 11.046875-68.175782 30.390625l-12.101562 13.464844c-6.171875 6.871093-13.28125 12.683593-21.042969 17.335937 34.667969 18.789063 74.371094 29.457032 116.566407 29.457032 99.433593 0 185.03125-59.234376 223.429687-144.34375zm0 0" fill="#fdebba"/><path d="m222.285156 475.488281c-42.726562-31.332031-5.910156-51.023437-5.910156-51.023437l.46875-2.128906c-20.984375 3.101562-40.40625 13.414062-54.773438 29.398437l-12.101562 13.464844c-6.171875 6.867187-13.28125 12.683593-21.042969 17.335937 30.949219 16.773438 65.917969 27.070313 103.085938 29.085938 5.714843-12.191406 5.257812-25.144532-9.726563-36.132813zm0 0" fill="#fcd592"/></svg>